<mxfile host="app.diagrams.net" modified="2020-03-16T04:54:16.366Z" agent="Mozilla/5.0 (Windows NT 10.0; Win64; x64) AppleWebKit/537.36 (KHTML, like Gecko) Chrome/80.0.3987.132 Safari/537.36" etag="r1u4o-Q0eqeFDq1Y2QpC" version="12.8.5" type="github">
  <diagram id="tE1sF4GvBIbtkZKi9FWb" name="Page-1">
    <mxGraphModel dx="868" dy="433" grid="1" gridSize="10" guides="1" tooltips="1" connect="1" arrows="1" fold="1" page="1" pageScale="1" pageWidth="850" pageHeight="1100" math="0" shadow="0">
      <root>
        <mxCell id="0" />
        <mxCell id="1" parent="0" />
        <mxCell id="OW5jCZfGLIIX9A3tXa7r-1" value="" style="endArrow=none;html=1;" edge="1" parent="1">
          <mxGeometry width="50" height="50" relative="1" as="geometry">
            <mxPoint x="240" y="1000" as="sourcePoint" />
            <mxPoint x="240" y="800" as="targetPoint" />
          </mxGeometry>
        </mxCell>
        <mxCell id="OW5jCZfGLIIX9A3tXa7r-2" value="" style="endArrow=none;html=1;" edge="1" parent="1">
          <mxGeometry width="50" height="50" relative="1" as="geometry">
            <mxPoint x="240" y="1000" as="sourcePoint" />
            <mxPoint x="640" y="1000" as="targetPoint" />
          </mxGeometry>
        </mxCell>
        <mxCell id="OW5jCZfGLIIX9A3tXa7r-3" value="" style="endArrow=none;html=1;" edge="1" parent="1">
          <mxGeometry width="50" height="50" relative="1" as="geometry">
            <mxPoint x="400" y="1000" as="sourcePoint" />
            <mxPoint x="400" y="800" as="targetPoint" />
          </mxGeometry>
        </mxCell>
        <mxCell id="OW5jCZfGLIIX9A3tXa7r-6" value="" style="endArrow=none;html=1;strokeWidth=2;" edge="1" parent="1">
          <mxGeometry width="50" height="50" relative="1" as="geometry">
            <mxPoint x="240" y="1000" as="sourcePoint" />
            <mxPoint x="400" y="1000" as="targetPoint" />
          </mxGeometry>
        </mxCell>
        <mxCell id="OW5jCZfGLIIX9A3tXa7r-9" value="" style="endArrow=none;html=1;strokeWidth=2;exitX=0.5;exitY=0;exitDx=0;exitDy=0;" edge="1" parent="1">
          <mxGeometry width="50" height="50" relative="1" as="geometry">
            <mxPoint x="400" y="1001" as="sourcePoint" />
            <mxPoint x="590" y="821" as="targetPoint" />
          </mxGeometry>
        </mxCell>
        <mxCell id="OW5jCZfGLIIX9A3tXa7r-10" value="0" style="text;html=1;strokeColor=none;fillColor=none;align=center;verticalAlign=middle;whiteSpace=wrap;rounded=0;" vertex="1" parent="1">
          <mxGeometry x="380" y="1000" width="40" height="20" as="geometry" />
        </mxCell>
        <mxCell id="OW5jCZfGLIIX9A3tXa7r-11" value="-10" style="text;html=1;strokeColor=none;fillColor=none;align=center;verticalAlign=middle;whiteSpace=wrap;rounded=0;" vertex="1" parent="1">
          <mxGeometry x="220" y="1000" width="40" height="20" as="geometry" />
        </mxCell>
        <mxCell id="OW5jCZfGLIIX9A3tXa7r-12" value="10" style="text;html=1;strokeColor=none;fillColor=none;align=center;verticalAlign=middle;whiteSpace=wrap;rounded=0;" vertex="1" parent="1">
          <mxGeometry x="610" y="1000" width="40" height="20" as="geometry" />
        </mxCell>
        <mxCell id="OW5jCZfGLIIX9A3tXa7r-13" value="10" style="text;html=1;strokeColor=none;fillColor=none;align=center;verticalAlign=middle;whiteSpace=wrap;rounded=0;" vertex="1" parent="1">
          <mxGeometry x="200" y="790" width="40" height="20" as="geometry" />
        </mxCell>
      </root>
    </mxGraphModel>
  </diagram>
</mxfile>
